<svg id="visual" viewBox="0 0 900 600" width="900" height="600" xmlns="http://www.w3.org/2000/svg" xmlns:xlink="http://www.w3.org/1999/xlink" version="1.1"><rect x="0" y="0" width="900" height="600" fill="#1c1e1f"></rect><path d="M0 357L21.5 362.8C43 368.7 86 380.3 128.8 384.3C171.7 388.3 214.3 384.7 257.2 381.7C300 378.7 343 376.3 385.8 384C428.7 391.7 471.3 409.3 514.2 418.2C557 427 600 427 642.8 414.3C685.7 401.7 728.3 376.3 771.2 367.5C814 358.7 857 366.3 878.5 370.2L900 374L900 601L878.5 601C857 601 814 601 771.2 601C728.3 601 685.7 601 642.8 601C600 601 557 601 514.2 601C471.3 601 428.7 601 385.8 601C343 601 300 601 257.2 601C214.3 601 171.7 601 128.8 601C86 601 43 601 21.5 601L0 601Z" fill="#dd1c1a"></path><path d="M0 428L21.5 422.5C43 417 86 406 128.8 414.2C171.7 422.3 214.3 449.7 257.2 459.2C300 468.7 343 460.3 385.8 454.5C428.7 448.7 471.3 445.3 514.2 437C557 428.7 600 415.3 642.8 416.7C685.7 418 728.3 434 771.2 443C814 452 857 454 878.5 455L900 456L900 601L878.5 601C857 601 814 601 771.2 601C728.3 601 685.7 601 642.8 601C600 601 557 601 514.2 601C471.3 601 428.7 601 385.8 601C343 601 300 601 257.2 601C214.3 601 171.7 601 128.8 601C86 601 43 601 21.5 601L0 601Z" fill="#bd1414"></path><path d="M0 486L21.5 482.7C43 479.3 86 472.7 128.8 474.8C171.7 477 214.3 488 257.2 488.3C300 488.7 343 478.3 385.8 479.5C428.7 480.7 471.3 493.3 514.2 496.5C557 499.7 600 493.3 642.8 490C685.7 486.7 728.3 486.3 771.2 482.2C814 478 857 470 878.5 466L900 462L900 601L878.5 601C857 601 814 601 771.2 601C728.3 601 685.7 601 642.8 601C600 601 557 601 514.2 601C471.3 601 428.7 601 385.8 601C343 601 300 601 257.2 601C214.3 601 171.7 601 128.8 601C86 601 43 601 21.5 601L0 601Z" fill="#9d0d0f"></path><path d="M0 512L21.5 506.8C43 501.7 86 491.3 128.8 488C171.7 484.7 214.3 488.3 257.2 496.3C300 504.3 343 516.7 385.8 516.7C428.7 516.7 471.3 504.3 514.2 498.7C557 493 600 494 642.8 492.7C685.7 491.3 728.3 487.7 771.2 486.5C814 485.3 857 486.7 878.5 487.3L900 488L900 601L878.5 601C857 601 814 601 771.2 601C728.3 601 685.7 601 642.8 601C600 601 557 601 514.2 601C471.3 601 428.7 601 385.8 601C343 601 300 601 257.2 601C214.3 601 171.7 601 128.8 601C86 601 43 601 21.5 601L0 601Z" fill="#7f0609"></path><path d="M0 561L21.5 557.3C43 553.7 86 546.3 128.8 540.5C171.7 534.7 214.3 530.3 257.2 535.3C300 540.3 343 554.7 385.8 557.2C428.7 559.7 471.3 550.3 514.2 544.2C557 538 600 535 642.8 538.8C685.7 542.7 728.3 553.3 771.2 552.2C814 551 857 538 878.5 531.5L900 525L900 601L878.5 601C857 601 814 601 771.2 601C728.3 601 685.7 601 642.8 601C600 601 557 601 514.2 601C471.3 601 428.7 601 385.8 601C343 601 300 601 257.2 601C214.3 601 171.7 601 128.8 601C86 601 43 601 21.5 601L0 601Z" fill="#620200"></path></svg>